<svg width="12" height="10" viewBox="0 0 12 10" fill="none" xmlns="http://www.w3.org/2000/svg">
<path d="M2.90664 3.31507H0.628516V9.98655H2.90664V3.31507Z" fill="#313131"/>
<path d="M2.52364 0.201635C2.30652 0.0701661 2.05137 3.99915e-06 1.79036 1.70346e-10C1.6162 -2.66581e-06 1.44376 0.0312427 1.28295 0.0919395C1.12215 0.152636 0.97615 0.241586 0.853355 0.353675C0.73056 0.465763 0.633392 0.598778 0.567438 0.74507C0.501484 0.891361 0.468046 1.04804 0.469046 1.2061C0.470547 1.44299 0.549313 1.67416 0.69541 1.87046C0.841506 2.06677 1.04839 2.2194 1.28995 2.30911C1.53152 2.39882 1.79695 2.42158 2.05276 2.37454C2.30856 2.32749 2.54329 2.21274 2.72732 2.04475C2.91135 1.87677 3.03644 1.66308 3.08681 1.43064C3.13718 1.19821 3.11057 0.957443 3.01035 0.738716C2.91012 0.51999 2.74077 0.333104 2.52364 0.201635Z" fill="#313131"/>
<path d="M6.56346 3.31473H4.36887L4.36128 10H6.6394V6.69872C6.6394 5.83032 6.82165 4.98949 8.00627 4.98949C9.1909 4.98949 9.1909 5.98884 9.1909 6.76074V9.98622H11.469V6.32655C11.469 4.52773 11.0058 3.14932 8.72768 3.14932C8.29349 3.1339 7.86283 3.22577 7.48166 3.41512C7.1005 3.60448 6.78314 3.88422 6.56346 4.22448V3.31473Z" fill="#313131"/>
</svg>
